<svg height="511pt" viewBox="0 0 511 511.91" width="300px" xmlns="http://www.w3.org/2000/svg">
  <!--  Icon made by Freepik from www.flaticon.com  -->
  <path d="M420.117 59.145a253.804 253.804 0 0 0-118.73-55.172h-.176A249.582 249.582 0 0 0 256.457 0C146.836-.066 49.363 69.742 14.137 173.55l-.086.09a256.218 256.218 0 0 0 11.387 192.704v.09c45.207 94.445 143.375 151.843 247.855 144.914 104.48-6.934 194.207-76.793 226.543-176.383 32.336-99.59.762-208.836-79.719-275.82zm0 0" fill="#ff5364"/>
  <g fill="#f3d55b">
    <path d="M499.656 335.977c-28.047 85.218-98.636 149.55-186.086 169.578v-.086a476.518 476.518 0 0 1-89.687-216.895c-7.594-56.496-10.418-93.219-11.39-116.699a72.146 72.146 0 0 0 16.948-7.152 70.48 70.48 0 0 0 32.047-38.84h.086c30.723 7.855 84.04 29.66 148.48 88.187a367.391 367.391 0 0 1 89.512 121.907zm0 0M420.117 59.145c-92.601-12.977-143.27-.442-169.754 12.89a57.958 57.958 0 0 0-40.96-17.48C222.558 23.57 263.515 9.977 301.21 3.973h.176a253.804 253.804 0 0 1 118.73 55.172zm0 0M147.7 153.602a571.82 571.82 0 0 0-82.098 88.449 204.83 204.83 0 0 0-40.165 124.293A256.218 256.218 0 0 1 14.052 173.64l.086-.09c51.113-63.207 94.457-70.973 123.675-64.531a53.37 53.37 0 0 0 5.649 38.312 43.27 43.27 0 0 0 4.238 6.27zm0 0"/>
  </g>
</svg>
