<svg xmlns="http://www.w3.org/2000/svg" width="200" viewBox="0 0 512 512">
    <g fill="#ef495b">
			<path d="M255.23 414.029l88.641-222.402c3.709-9.306 14.26-13.844 23.566-10.135 9.306 3.709 13.844 14.26 10.135 23.566l-84.653 212.396-37.689-3.425z" fill="#90a4ae"/>
			<path d="M290.171 220.482l.027-.063-.026.004-.001.059z" fill="#fff9c5"/>
			<path d="M399.536 100.961l-66.884 7.189-42.481 49.475.007 62.783.03-.012-.01.022c18.552-3.445 39.208-1.638 59.202 6.331 19.867 7.918 36.018 20.704 47.109 35.837l.194.354 34.942-34.596 3.898-86.328-36.007-41.055z" fill="#fff9c5"/>
			<path d="M290.178 220.409c-11.098-15.259-27.334-28.156-47.327-36.125-20.003-7.973-40.671-9.778-59.228-6.327 0 0 90.046-127.161 215.914-76.995 0 0-66.007 17.655-109.365 119.521l.006-.074z"/>
			<path d="M396.749 262.884c18.552-3.443 39.208-1.636 59.202 6.333 20.003 7.973 36.247 20.878 47.342 36.148 0 0 22.11-154.238-103.758-204.405 0 0 35.767 58.218-2.831 161.98l.045-.056z"/>
    </g>
</svg>