<svg xmlns="http://www.w3.org/2000/svg" width="200" height="100" viewBox="0 0 512 512">
    <path d="M445.573 415.248H241V194.381h173.213l16.706 65.99C462.381 274.999 483 306.834 483 342c0 27.233-12.135 52.707-33.294 69.892l-4.133 3.356z" fill="#331d17"/>
    <path d="M62.294 411.892C41.135 394.707 29 369.233 29 342c0-35.166 20.619-67.001 52.081-81.629l16.706-65.99H256v220.867H66.427l-4.133-3.356z" fill="#5b3227"/>
    <path d="M396 210h-22.79l.318-85H396c23.435 0 42.5 19.065 42.5 42.5S419.435 210 396 210z" fill="#bf4e2e"/>
    <path d="M396 155v16.91c0 77.2-62.8 140-140 140l-40-282L396 155z" fill="#cf6446"/>
    <path d="M256 19.91v292c-77.2 0-140-62.8-140-140 0 0 15.855-152 140-152z" fill="#d97a5f"/>
    <path d="M483 477v35h-60l-217-40 50-130h92c74.44 0 135 60.56 135 135z" fill="#cf6446"/>
    <path d="M256 342v140L89 512H29v-35c0-74.44 60.56-135 135-135h92z" fill="#d97a5f"/>
    <path d="M348 402h-92l-50 70 187 40h30v-35c0-41.36-33.65-75-75-75z" fill="#71b04a"/>
    <path d="M164 402c-41.35 0-75 33.64-75 75v35h30l137-80v-30h-92z" fill="#82cc56"/>
    <path d="M396 140v15h-85c-23.82 0-44.96-14.1-54.55-35H256l-30-60 30-60c77.2 0 140 62.8 140 140z" fill="#331d17"/>
    <path d="M116 140v32h30v-32c0-39.152 20.564-73.586 51.455-93.084A59.912 59.912 0 0 0 196 60c0 33.08 26.92 60 60 60V0c-77.196 0-140 62.804-140 140z" fill="#5b3227"/>
    <path d="M393 477v35H256l-50-40 50-40h92c24.81 0 45 20.19 45 45z" fill="#82cc56"/>
    <path d="M256 432v80H119v-35c0-24.81 20.19-45 45-45h92z" fill="#9ce072"/>
    <path d="M158.15 142.5c6.08 10.53 5.04 23.22-1.62 32.5 6.66 9.28 7.7 21.97 1.62 32.5-6.09 10.53-17.59 15.98-28.96 14.85-4.71 10.41-15.17 17.65-27.34 17.65l-34.67-65 34.67-65c12.17 0 22.63 7.24 27.34 17.65 11.37-1.13 22.87 4.32 28.96 14.85z" fill="#ffd640"/>
    <path d="M101.85 110v130c-12.16 0-22.62-7.24-27.33-17.65-11.37 1.13-22.87-4.32-28.96-14.85-6.08-10.53-5.04-23.22 1.62-32.5-6.66-9.28-7.7-21.97-1.62-32.5 6.09-10.53 17.59-15.98 28.96-14.85C79.23 117.24 89.69 110 101.85 110z" fill="#fff666"/>
    <path d="M101.855 137.5l-17.5 37.5 17.5 37.5c20.711 0 37.5-16.789 37.5-37.5s-16.789-37.5-37.5-37.5z" fill="#fff0eb"/>
    <path d="M64.355 175c0 20.711 16.789 37.5 37.5 37.5v-75c-20.711 0-37.5 16.789-37.5 37.5z" fill="#fff"/>
    <circle cx="101.86" cy="175" r="15" fill="#82cc56"/>
</svg>
